<?xml version="1.0" standalone="no"?>
<!DOCTYPE svg PUBLIC "-//W3C//DTD SVG 20010904//EN"
 "http://www.w3.org/TR/2001/REC-SVG-20010904/DTD/svg10.dtd">
<svg version="1.0" xmlns="http://www.w3.org/2000/svg"
 width="512.000000pt" height="512.000000pt" viewBox="0 0 512.000000 512.000000"
 preserveAspectRatio="xMidYMid meet">

<g transform="translate(0.000000,512.000000) scale(0.100000,-0.100000)"
fill="#000000" stroke="none">
<path d="M2740 5015 c-367 -46 -712 -186 -1015 -414 -127 -95 -320 -288 -412
-411 -311 -415 -464 -924 -425 -1414 6 -81 14 -151 17 -156 4 -6 66 -10 147
-10 l140 0 -6 33 c-4 17 -9 115 -12 217 -5 145 -3 210 10 300 60 410 236 762
527 1051 350 348 793 531 1289 531 499 0 943 -184 1295 -537 285 -285 456
-623 519 -1031 20 -130 21 -386 1 -519 -69 -461 -291 -855 -655 -1162 -105
-89 -302 -208 -442 -267 l-68 -29 0 -149 c0 -81 3 -148 6 -148 49 0 387 161
504 240 549 370 890 939 949 1580 58 632 -161 1235 -613 1686 -347 346 -762
549 -1246 610 -138 17 -367 17 -510 -1z"/>
<path d="M3288 4449 c-10 -5 -22 -18 -28 -29 -6 -10 -93 -294 -195 -630 l-185
-610 -64 -63 c-48 -47 -67 -75 -81 -116 -63 -192 100 -391 301 -366 l54 6 387
-202 c222 -115 404 -204 425 -206 31 -5 42 -1 68 25 38 38 41 89 8 126 -13 13
-174 145 -358 291 -300 238 -337 271 -350 308 -8 23 -22 56 -31 72 -15 29 -12
58 87 665 57 349 103 645 104 658 0 36 -52 82 -92 82 -18 0 -41 -5 -50 -11z
m-220 -1419 c39 -24 72 -75 72 -113 0 -67 -49 -127 -116 -141 -42 -9 -109 18
-135 56 -84 117 56 273 179 198z"/>
<path d="M85 2377 c-26 -14 -48 -37 -62 -67 l-23 -44 0 -573 0 -573 1718 2
1717 3 -1 85 c-1 54 -8 100 -18 125 -12 29 -115 136 -368 385 -193 190 -365
354 -382 365 -28 18 -51 20 -233 23 l-203 3 0 80 c0 96 -15 137 -66 175 l-37
29 -1001 2 -1001 3 -40 -23z m2763 -708 c169 -162 262 -257 260 -268 -3 -14
-36 -16 -338 -16 l-335 0 -3 255 c-1 140 0 260 3 267 3 9 28 13 77 13 l73 0
263 -251z"/>
<path d="M0 833 c0 -223 9 -259 71 -304 31 -22 45 -24 174 -27 l141 -3 18 61
c80 267 382 401 632 280 117 -57 193 -145 235 -272 l22 -68 447 0 447 0 22 68
c42 127 118 215 235 272 250 121 559 -17 633 -283 l17 -59 117 4 c100 3 122 6
145 24 74 54 83 93 84 327 l0 177 -1720 0 -1720 0 0 -197z"/>
<path d="M779 770 c-138 -24 -256 -143 -277 -282 -23 -154 48 -292 186 -360
59 -29 76 -33 152 -33 71 0 94 4 141 26 209 98 265 369 112 539 -54 60 -116
94 -198 109 -32 6 -61 10 -64 10 -3 -1 -27 -5 -52 -9z m158 -196 c88 -65 96
-192 17 -266 -56 -52 -120 -61 -191 -27 -63 31 -97 92 -91 165 5 61 26 96 79
132 29 20 44 23 96 20 43 -3 72 -10 90 -24z"/>
<path d="M2570 766 c-78 -17 -131 -48 -183 -106 -121 -134 -115 -342 13 -470
67 -67 138 -95 240 -95 76 0 93 4 152 33 171 84 237 278 155 455 -32 69 -88
123 -162 157 -73 34 -142 42 -215 26z m160 -188 c52 -36 73 -71 78 -132 6 -73
-28 -134 -91 -165 -71 -34 -135 -25 -191 27 -73 68 -73 188 1 254 48 44 150
52 203 16z"/>
</g>
</svg>
