<?xml version="1.0" standalone="no"?>
<!DOCTYPE svg PUBLIC "-//W3C//DTD SVG 20010904//EN"
 "http://www.w3.org/TR/2001/REC-SVG-20010904/DTD/svg10.dtd">
<svg version="1.0" xmlns="http://www.w3.org/2000/svg"
 width="512.000000pt" height="512.000000pt" viewBox="0 0 512.000000 512.000000"
 preserveAspectRatio="xMidYMid meet">
<metadata>
Created by potrace 1.16, written by Peter Selinger 2001-2019
</metadata>
<g transform="translate(0.000000,512.000000) scale(0.100000,-0.100000)"
fill="#000000" stroke="none">
<path d="M105 4104 c-44 -22 -76 -55 -91 -91 -12 -27 -14 -237 -14 -1228 0
-1303 -4 -1220 57 -1277 42 -40 74 -48 197 -48 l113 0 14 -47 c41 -150 139
-277 271 -348 63 -34 187 -65 262 -65 206 1 400 120 489 300 20 41 42 94 47
118 l11 42 1104 0 1103 0 7 -41 c14 -80 80 -191 155 -263 115 -108 223 -151
380 -151 166 0 286 51 398 169 70 74 103 130 132 226 l16 55 163 5 c156 5 164
6 182 29 18 22 19 48 19 669 l0 646 -177 300 c-97 166 -195 328 -217 361 -94
142 -169 209 -285 254 l-66 26 -396 3 -397 3 -4 117 c-5 126 -14 156 -65 204
-15 15 -41 32 -56 37 -20 8 -536 11 -1675 11 -1473 0 -1650 -2 -1677 -16z
m3275 -1314 l0 -1140 -959 0 -959 0 -21 68 c-36 120 -140 250 -251 314 -154
90 -373 94 -534 11 -125 -65 -242 -213 -276 -350 l-11 -43 -89 0 -90 0 0 1140
0 1140 1595 0 1595 0 0 -1140z m957 756 c29 -8 69 -25 90 -38 l38 -23 -338 -5
-339 -5 -19 -23 c-28 -36 -31 -68 -27 -338 3 -228 5 -253 24 -295 29 -63 74
-110 131 -139 48 -25 48 -25 395 -28 l347 -3 -24 -35 c-34 -50 -47 -129 -43
-261 3 -112 4 -115 31 -139 27 -23 34 -24 178 -24 l149 0 0 -270 0 -270 -89 0
-89 0 -7 41 c-11 63 -72 174 -130 237 -105 113 -245 174 -405 174 -160 0 -300
-61 -406 -175 -56 -60 -117 -174 -129 -239 -7 -37 -8 -38 -51 -38 l-44 0 0
955 0 955 353 0 c269 0 364 -4 404 -14z m389 -458 c65 -111 125 -212 132 -225
l13 -24 -440 3 -439 3 -26 24 -26 24 0 199 0 198 333 0 334 0 119 -202z m204
-623 l0 -85 -86 0 -87 0 6 54 c9 89 35 114 120 115 l47 1 0 -85z m-3895 -576
c145 -54 237 -186 236 -339 0 -92 -30 -166 -93 -236 -87 -95 -206 -137 -322
-114 -273 54 -388 355 -220 577 87 114 261 164 399 112z m3328 -13 c225 -114
275 -399 100 -574 -143 -143 -362 -144 -505 -1 -165 164 -133 431 67 557 63
40 112 52 201 49 65 -3 92 -9 137 -31z"/>
<path d="M396 3725 c-46 -42 -34 -129 21 -154 35 -16 2702 -16 2737 0 38 18
60 71 46 114 -23 70 90 65 -1416 65 l-1361 0 -27 -25z"/>
<path d="M839 1816 c-158 -42 -245 -232 -174 -381 28 -57 97 -120 152 -139 54
-18 144 -20 190 -3 58 22 117 72 146 124 52 97 46 188 -16 219 -63 33 -128 -6
-141 -85 -11 -70 -77 -102 -129 -61 -57 45 -38 121 36 140 61 16 83 29 96 57
25 55 3 113 -51 132 -38 13 -50 13 -109 -3z"/>
<path d="M4133 1816 c-124 -40 -194 -135 -194 -262 0 -157 116 -274 271 -274
135 1 245 90 268 219 12 65 6 94 -25 122 -54 52 -145 17 -158 -60 -15 -85 -91
-117 -145 -59 -46 49 -16 110 66 134 63 18 88 48 87 102 -2 71 -80 107 -170
78z"/>
</g>
</svg>
