<?xml version="1.0" standalone="no"?>
<!DOCTYPE svg PUBLIC "-//W3C//DTD SVG 20010904//EN"
 "http://www.w3.org/TR/2001/REC-SVG-20010904/DTD/svg10.dtd">
<svg version="1.0" xmlns="http://www.w3.org/2000/svg"
 width="512.000000pt" height="512.000000pt" viewBox="0 0 512.000000 512.000000"
 preserveAspectRatio="xMidYMid meet">

<g transform="translate(0.000000,512.000000) scale(0.100000,-0.100000)"
fill="#000000" stroke="none">
<path d="M232 4277 c-53 -20 -103 -66 -128 -121 l-24 -51 0 -1096 0 -1096 -21
-19 c-49 -43 -59 -87 -59 -265 0 -155 2 -169 23 -210 15 -29 40 -54 71 -74 47
-29 52 -29 206 -33 l158 -4 7 -44 c8 -58 74 -187 125 -246 52 -61 158 -130
240 -159 88 -30 224 -37 310 -15 203 51 372 218 415 409 l12 52 855 3 856 2 6
-45 c9 -59 75 -188 126 -247 52 -61 158 -130 240 -159 88 -30 224 -37 310 -15
204 51 371 216 415 409 l11 52 210 6 c157 4 218 9 244 21 42 18 97 77 107 116
14 48 9 698 -5 792 -18 112 -56 256 -141 535 -39 127 -71 233 -71 238 0 4 33
7 73 7 l74 0 52 -165 c48 -151 55 -166 83 -181 25 -13 35 -13 59 -3 31 12 49
36 49 64 0 35 -124 399 -142 417 -16 16 -35 18 -158 18 -77 0 -140 2 -140 4 0
22 -68 222 -88 259 -52 97 -164 175 -282 197 -31 6 -261 10 -561 10 l-508 0
-3 243 -3 244 -30 49 c-19 30 -49 60 -79 79 l-49 30 -1406 2 c-1065 1 -1414
-1 -1439 -10z m2819 -150 c25 -19 39 -52 39 -91 l0 -36 -640 0 -641 0 -24 -25
c-32 -31 -32 -69 0 -100 l24 -25 641 0 640 0 0 -950 0 -950 -1430 0 -1430 0 0
950 0 950 640 0 641 0 24 25 c32 31 32 69 0 100 l-24 25 -641 0 -640 0 0 45
c0 35 6 52 25 70 l24 25 1378 0 c1067 -1 1382 -3 1394 -13z m1301 -665 c43
-22 118 -93 118 -114 0 -4 -277 -8 -615 -8 l-615 0 0 75 0 76 533 -3 532 -3
47 -23z m-882 -588 c0 -327 1 -335 44 -382 39 -43 76 -55 192 -62 105 -5 113
-7 151 -38 48 -37 93 -42 123 -12 32 32 26 77 -16 117 -62 58 -108 76 -209 80
-49 2 -100 6 -112 9 l-23 4 0 300 0 300 450 0 449 0 30 -97 c181 -595 241
-810 241 -870 l0 -33 -205 0 c-227 0 -239 2 -319 64 -55 41 -73 44 -110 15
-42 -33 -36 -82 17 -130 23 -22 67 -52 97 -67 55 -27 57 -27 298 -30 l242 -4
0 -64 0 -64 -81 0 c-65 0 -89 -4 -120 -22 -69 -39 -73 -52 -79 -248 l-5 -175
-66 -3 -67 -3 -12 53 c-47 206 -211 371 -420 424 -86 22 -222 15 -310 -15 -83
-29 -188 -99 -240 -159 -53 -62 -107 -166 -123 -238 -9 -40 -19 -60 -30 -62
-16 -3 -17 59 -17 862 l0 866 115 0 115 0 0 -316z m-2891 -1126 c-53 -67 -96
-154 -113 -226 l-13 -57 -128 -3 c-182 -4 -175 -10 -175 171 0 98 4 147 12
155 9 9 75 12 235 12 l223 0 -41 -52z m603 15 c88 -41 160 -113 201 -201 30
-62 32 -75 32 -172 0 -97 -2 -110 -31 -170 -46 -95 -101 -153 -192 -197 -73
-37 -80 -38 -181 -38 -89 0 -114 4 -155 23 -357 164 -332 656 39 779 25 8 75
12 130 10 77 -2 100 -7 157 -34z m1908 -133 l0 -170 -759 0 -759 0 -12 53
c-19 80 -62 166 -113 230 l-47 57 845 0 845 0 0 -170z m912 133 c92 -43 151
-100 196 -191 36 -73 37 -80 37 -181 0 -98 -2 -111 -31 -171 -46 -95 -101
-153 -192 -197 -73 -37 -80 -38 -181 -38 -94 0 -112 3 -161 26 -323 154 -333
588 -18 750 58 30 106 38 198 36 71 -3 96 -8 152 -34z m808 -133 c0 -154 -8
-170 -85 -170 l-45 0 0 150 0 150 65 0 65 0 0 -130z"/>
<path d="M3600 2288 c-25 -27 -26 -69 -2 -98 13 -16 32 -24 70 -28 62 -6 105
10 121 44 16 35 14 48 -10 78 -19 24 -27 26 -89 26 -58 0 -72 -3 -90 -22z"/>
<path d="M937 1700 c-61 -16 -110 -45 -156 -95 -63 -68 -85 -124 -85 -215 0
-92 23 -148 89 -219 62 -67 128 -94 225 -95 126 -1 227 61 287 177 23 45 27
64 27 137 0 73 -4 92 -27 137 -36 69 -88 120 -154 150 -60 28 -148 37 -206 23z
m136 -154 c72 -30 117 -114 103 -192 -9 -45 -67 -109 -112 -124 -122 -41 -251
81 -214 203 28 97 134 151 223 113z"/>
<path d="M3750 1697 c-91 -26 -173 -97 -213 -186 -29 -64 -29 -178 0 -243 30
-66 95 -133 161 -165 46 -22 70 -28 132 -28 126 0 226 62 287 178 24 45 28 64
28 137 0 73 -4 92 -28 137 -72 138 -228 210 -367 170z m143 -151 c44 -18 95
-78 103 -121 11 -60 -4 -106 -50 -151 -69 -69 -163 -69 -232 0 -84 84 -59 217
50 267 49 22 85 24 129 5z"/>
</g>
</svg>
