<?xml version="1.0" standalone="no"?>
<!DOCTYPE svg PUBLIC "-//W3C//DTD SVG 20010904//EN"
 "http://www.w3.org/TR/2001/REC-SVG-20010904/DTD/svg10.dtd">
<svg version="1.0" xmlns="http://www.w3.org/2000/svg"
 width="512.000000pt" height="512.000000pt" viewBox="0 0 512.000000 512.000000"
 preserveAspectRatio="xMidYMid meet">
<metadata>
Created by potrace 1.16, written by Peter Selinger 2001-2019
</metadata>
<g transform="translate(0.000000,512.000000) scale(0.100000,-0.100000)"
fill="#000000" stroke="none">
<path d="M2873 4127 c-33 -31 -44 -58 -133 -323 l-97 -289 -1165 -5 -1164 -5
-38 -25 c-33 -22 -53 -56 -153 -260 -95 -193 -117 -245 -120 -290 -3 -30 0
-67 5 -81 11 -27 283 -375 311 -396 9 -7 33 -13 53 -13 60 0 95 59 67 113 -7
11 -72 96 -146 189 -158 197 -156 144 -20 418 l92 185 1170 5 c907 4 1175 8
1192 17 43 25 60 64 153 347 l94 286 192 0 c195 0 236 6 260 38 20 26 17 75
-6 100 -20 21 -27 22 -266 22 l-244 0 -37 -33z"/>
<path d="M3610 4140 c-21 -21 -26 -69 -10 -100 16 -30 66 -40 201 -40 127 0
129 0 145 -26 13 -19 15 -32 8 -52 -17 -47 -41 -52 -284 -52 -205 0 -228 -2
-257 -20 -67 -40 -63 19 -63 -1020 l0 -940 -748 0 -748 0 -69 68 c-83 80 -179
133 -292 158 -175 39 -378 -15 -505 -134 -42 -39 -51 -43 -62 -31 -7 8 -77 95
-156 194 -165 209 -181 225 -221 225 -39 0 -79 -39 -79 -78 0 -33 13 -51 174
-252 l116 -145 -53 -18 c-91 -30 -144 -97 -154 -193 -5 -44 -1 -62 21 -107 33
-68 82 -104 163 -119 l61 -11 6 -41 c4 -23 25 -79 48 -126 156 -324 586 -423
878 -203 97 73 185 207 212 322 l11 51 788 0 787 0 12 -52 c22 -92 78 -186
160 -268 121 -121 238 -170 408 -170 109 0 177 17 275 68 144 75 257 217 291
367 l11 50 155 5 c164 6 192 14 237 62 33 36 43 72 43 164 0 115 -27 163 -113
199 l-37 15 0 448 c0 418 -2 450 -19 489 -31 66 -432 684 -470 721 -71 72 -73
72 -547 72 l-424 0 0 45 0 45 198 0 c272 0 330 20 386 132 41 83 31 173 -27
244 -53 64 -89 74 -274 74 -150 0 -165 -2 -183 -20z m747 -698 c13 -9 119
-167 238 -351 l215 -334 0 -434 0 -433 -114 0 -114 0 -36 44 c-20 25 -68 66
-107 92 -238 158 -540 131 -742 -67 l-70 -69 -58 0 -59 0 0 785 0 785 413 0
c375 0 414 -2 434 -18z m-2835 -1502 c191 -73 308 -280 268 -475 -63 -316
-433 -452 -684 -251 -56 45 -112 128 -137 203 -76 230 79 492 323 543 61 13
168 3 230 -20z m2659 20 c158 -30 282 -141 334 -298 28 -85 18 -209 -22 -295
-42 -89 -121 -168 -210 -209 -87 -41 -210 -50 -294 -23 -160 52 -270 177 -300
340 -39 210 112 434 323 480 79 17 102 18 169 5z m-635 -247 c-4 -9 -10 -36
-13 -60 l-6 -43 -785 2 -785 3 -12 58 -11 57 809 0 c758 0 809 -1 803 -17z
m1414 -2 c15 -29 12 -67 -6 -85 -12 -13 -40 -16 -138 -16 l-123 0 -11 51 c-7
28 -12 55 -12 60 0 5 61 9 140 9 127 0 140 -2 150 -19z"/>
<path d="M3633 3346 l-28 -24 -3 -318 c-2 -227 1 -326 9 -346 25 -60 8 -58
554 -58 l501 0 27 28 c20 21 27 38 27 68 0 34 -24 78 -186 329 -103 160 -198
302 -212 318 l-26 27 -317 0 -318 0 -28 -24z m704 -316 c63 -96 127 -196 143
-222 l30 -48 -375 0 -375 0 0 225 0 225 232 -2 232 -3 113 -175z"/>
<path d="M3615 2525 c-23 -22 -25 -32 -25 -108 0 -74 3 -86 23 -105 29 -27 77
-28 108 -3 22 18 24 27 24 111 0 84 -2 93 -24 111 -32 26 -77 24 -106 -6z"/>
<path d="M1255 1807 c-155 -75 -215 -252 -136 -404 75 -146 271 -194 415 -103
149 95 173 314 48 443 -57 60 -105 80 -197 84 -69 4 -87 1 -130 -20z m206
-176 c34 -34 39 -44 39 -86 0 -115 -122 -172 -210 -99 -44 37 -56 85 -35 139
20 55 64 85 124 85 37 0 49 -5 82 -39z"/>
<path d="M3996 1810 c-152 -60 -221 -247 -145 -398 128 -257 511 -187 545 99
20 169 -115 320 -285 319 -40 -1 -85 -8 -115 -20z m182 -160 c34 -21 62 -72
62 -112 0 -54 -75 -128 -128 -128 -38 0 -93 31 -114 64 -38 61 -8 160 57 186
35 15 89 10 123 -10z"/>
<path d="M937 3146 c-12 -13 -85 -150 -161 -304 -145 -292 -150 -307 -110
-346 24 -24 64 -31 93 -15 35 19 311 564 311 614 0 66 -88 100 -133 51z"/>
<path d="M1447 3159 c-26 -15 -450 -867 -449 -903 1 -57 70 -93 118 -61 30 19
454 861 454 901 0 54 -74 92 -123 63z"/>
<path d="M1933 3148 c-30 -32 -443 -864 -443 -892 0 -28 33 -64 66 -72 58 -15
63 -7 293 455 202 404 219 442 211 471 -5 18 -17 38 -27 46 -28 21 -77 17
-100 -8z"/>
<path d="M2437 3159 c-24 -14 -447 -862 -447 -897 0 -58 55 -95 109 -72 22 9
65 87 244 445 119 239 217 447 217 460 0 55 -74 93 -123 64z"/>
<path d="M2932 3154 c-32 -22 -444 -847 -445 -891 -2 -61 68 -102 119 -68 17
11 90 146 240 448 181 362 215 436 210 462 -11 58 -75 83 -124 49z"/>
</g>
</svg>
