<?xml version="1.0" standalone="no"?>
<!DOCTYPE svg PUBLIC "-//W3C//DTD SVG 20010904//EN"
 "http://www.w3.org/TR/2001/REC-SVG-20010904/DTD/svg10.dtd">
<svg version="1.0" xmlns="http://www.w3.org/2000/svg"
 width="512.000000pt" height="512.000000pt" viewBox="0 0 512.000000 512.000000"
 preserveAspectRatio="xMidYMid meet">

<g transform="translate(0.000000,512.000000) scale(0.100000,-0.100000)"
fill="#000000" stroke="none">
<path d="M3691 4180 c-58 -12 -77 -26 -209 -149 l-113 -106 -526 -5 -525 -5
-19 -24 c-25 -30 -24 -62 2 -95 l20 -26 550 0 550 0 57 52 c31 29 91 85 132
125 41 39 88 77 103 82 16 6 104 11 198 11 l169 0 0 -43 0 -44 -157 -47 -158
-48 -137 -129 -137 -129 -1408 0 -1408 0 -91 -97 c-50 -54 -138 -150 -196
-213 -58 -63 -116 -119 -130 -124 -57 -20 -119 39 -104 98 7 27 393 462 434
488 25 17 80 18 764 18 l737 0 20 26 c26 33 27 65 2 95 l-19 24 -764 0 -763 0
-44 -25 c-46 -27 -454 -470 -494 -538 -34 -58 -31 -161 6 -225 70 -119 220
-151 339 -71 28 19 54 31 57 26 3 -5 23 -29 44 -54 l37 -45 0 -449 0 -450 -83
-12 c-153 -22 -259 -98 -340 -244 -52 -92 -56 -120 -24 -152 l26 -26 233 0
233 0 1 -102 c0 -69 6 -123 18 -163 50 -169 166 -309 316 -382 107 -52 171
-67 285 -65 261 2 490 174 571 426 21 65 26 101 26 184 l0 103 111 -3 112 -3
5 -87 c8 -140 52 -180 207 -186 105 -5 144 6 162 44 16 35 14 48 -10 78 -19
25 -25 26 -115 26 l-94 0 0 65 0 65 425 0 426 0 -3 -63 -3 -62 -217 -5 c-202
-5 -218 -6 -232 -25 -21 -28 -20 -68 3 -96 19 -24 23 -24 224 -27 229 -3 269
3 322 49 40 36 55 80 55 167 l0 62 183 0 184 0 -5 -77 c-9 -170 53 -329 178
-453 126 -126 257 -181 430 -181 176 0 299 51 426 176 66 65 89 96 122 165 49
103 62 163 62 280 l0 90 125 0 c104 0 132 3 163 19 92 47 102 81 102 343 -1
302 -8 315 -218 383 l-127 41 -5 365 -5 366 -30 48 c-20 32 -45 56 -74 72 -43
23 -50 23 -331 23 l-287 0 -21 -23 c-31 -33 -29 -80 4 -106 26 -20 39 -21 295
-21 265 0 268 0 283 -22 10 -13 16 -44 16 -75 l0 -52 -317 -3 -318 -3 -53 -29
c-112 -63 -142 -131 -142 -325 0 -127 2 -141 26 -189 14 -29 44 -67 66 -86 73
-63 93 -66 467 -67 l336 -1 140 -46 140 -47 3 -66 3 -66 -52 -5 c-88 -9 -123
-73 -72 -130 12 -13 31 -18 70 -18 l54 0 -3 -62 -3 -63 -146 -3 -145 -3 -18
38 c-30 63 -95 141 -160 190 -205 155 -467 172 -687 43 -75 -44 -182 -153
-219 -223 l-25 -47 -108 0 -108 0 3 543 3 542 29 60 c62 126 177 203 315 212
42 2 88 9 103 15 52 19 58 101 9 127 -28 16 -135 13 -210 -4 -185 -44 -337
-194 -386 -382 -8 -32 -15 -101 -15 -154 l0 -96 -102 -5 c-116 -5 -153 -19
-190 -70 -22 -32 -23 -40 -26 -270 l-3 -238 -250 0 -249 0 0 60 0 60 69 0 c38
0 76 3 84 6 8 3 200 284 427 625 l413 619 66 0 c95 1 135 23 280 158 l126 118
175 53 c96 29 183 60 193 68 15 14 17 35 17 153 0 198 20 185 -267 187 -125 1
-248 -3 -272 -7z m-2583 -739 c-9 -24 -324 -541 -329 -541 -5 0 -154 177 -242
287 -18 23 -18 23 90 143 l108 120 188 0 c104 0 187 -4 185 -9z m660 -13 c-8
-13 -147 -242 -308 -510 -162 -267 -298 -484 -301 -482 -4 2 -68 78 -143 169
l-136 164 191 318 c105 175 197 328 205 341 14 22 16 22 260 22 l246 0 -14
-22z m673 5 c-6 -10 -153 -256 -329 -548 l-318 -530 -251 -3 -252 -2 135 222
c74 123 224 370 332 550 l197 327 248 1 c233 0 247 -1 238 -17z m743 5 c-4 -7
-169 -255 -366 -550 l-358 -538 -246 0 -246 0 29 49 c15 26 163 274 328 549
l300 501 283 1 c224 0 282 -3 276 -12z m1436 -778 l0 -200 -295 0 c-325 0
-340 2 -370 60 -22 43 -21 242 2 281 33 56 50 59 371 59 l292 0 0 -200z
m-3901 69 l51 -61 0 -294 0 -294 -55 0 -55 0 0 355 c0 195 2 355 4 355 2 0 27
-27 55 -61z m2479 -436 l2 -213 -85 0 -85 0 0 208 c0 115 3 212 7 216 4 4 41
5 83 4 l75 -3 3 -212z m-2158 47 c51 -63 100 -121 108 -127 9 -7 40 -13 69
-13 48 0 53 -2 53 -22 0 -22 -3 -23 -102 -24 -92 0 -158 -11 -233 -40 -13 -5
-15 17 -15 182 0 157 2 186 13 174 8 -8 56 -67 107 -130z m1190 -200 l0 -60
-386 0 c-246 0 -392 4 -405 10 -15 8 -19 22 -19 60 l0 50 405 0 405 0 0 -60z
m-1133 -170 c24 -63 104 -64 133 -2 13 28 18 31 45 26 38 -8 155 -64 155 -75
0 -4 -4 -11 -10 -14 -5 -3 -10 -22 -10 -41 0 -63 54 -90 121 -60 12 5 22 -6
41 -46 14 -29 28 -63 32 -75 3 -13 9 -32 12 -43 4 -15 1 -20 -12 -20 -30 0
-64 -40 -64 -76 0 -33 37 -74 67 -74 17 0 10 -34 -24 -112 -28 -63 -47 -86
-58 -68 -11 18 -74 11 -95 -10 -21 -21 -28 -84 -10 -95 18 -11 -5 -30 -68 -58
-78 -34 -112 -41 -112 -24 0 30 -41 67 -73 67 -35 0 -77 -34 -77 -62 0 -15 -5
-18 -22 -13 -13 4 -32 9 -43 12 -11 3 -44 17 -73 31 -40 19 -51 29 -46 41 30
67 3 121 -60 121 -19 0 -38 -4 -41 -10 -3 -5 -10 -10 -14 -10 -11 0 -67 117
-75 155 -6 27 -3 32 23 42 64 24 66 104 3 133 -28 13 -31 19 -26 45 3 17 19
58 36 93 24 50 33 62 46 56 44 -19 77 -16 101 10 23 24 25 54 7 96 -8 18 49
54 118 76 58 18 60 17 73 -16z m2953 13 c0 -25 40 -63 67 -63 36 0 59 16 73
50 15 37 28 36 129 -11 57 -26 63 -31 56 -52 -4 -12 -8 -35 -8 -51 0 -52 63
-83 113 -56 25 13 46 -17 77 -109 l22 -66 -27 -7 c-57 -16 -72 -91 -26 -127
15 -12 33 -21 40 -21 17 0 -8 -88 -42 -148 -21 -36 -28 -41 -44 -32 -68 36
-140 -26 -105 -92 14 -27 13 -28 -31 -54 -50 -30 -137 -58 -142 -47 -20 59
-62 84 -109 67 -19 -6 -31 -20 -38 -42 -11 -37 -15 -37 -108 -1 -83 31 -91 41
-76 83 12 32 11 39 -7 63 -23 31 -76 42 -100 22 -13 -10 -17 -10 -25 2 -20 28
-59 116 -65 145 -5 26 -2 30 25 41 61 23 63 105 3 133 -30 14 -32 18 -27 49 8
42 62 151 75 151 5 0 12 -4 15 -10 12 -20 65 -11 92 16 25 25 27 52 9 96 -6
13 2 22 35 39 95 48 149 60 149 32z m-3372 -60 c-2 -5 -18 -34 -36 -65 l-34
-58 -179 0 c-98 0 -179 4 -179 8 0 13 63 69 98 87 19 9 52 20 75 25 53 10 260
12 255 3z m2520 -60 l3 -63 -740 0 -739 0 -34 58 c-18 31 -34 60 -36 65 -2 4
344 6 770 5 l773 -3 3 -62z"/>
<path d="M1065 1771 c-50 -23 -109 -84 -130 -133 -49 -118 14 -265 137 -318
196 -84 402 122 318 318 -54 126 -207 188 -325 133z m167 -161 c27 -27 30 -36
25 -72 -7 -52 -33 -78 -85 -85 -36 -5 -45 -2 -72 25 -41 42 -42 92 -1 133 41
41 91 40 133 -1z"/>
<path d="M4032 1775 c-58 -25 -92 -55 -122 -108 -25 -43 -30 -63 -30 -117 0
-79 22 -130 76 -182 134 -131 363 -59 405 126 33 150 -86 297 -240 296 -31 -1
-71 -7 -89 -15z m153 -159 c48 -48 40 -122 -16 -151 -41 -22 -74 -18 -108 11
-26 21 -31 33 -31 67 0 23 6 49 13 58 35 45 105 52 142 15z"/>
</g>
</svg>
