<?xml version="1.0" standalone="no"?>
<!DOCTYPE svg PUBLIC "-//W3C//DTD SVG 20010904//EN"
 "http://www.w3.org/TR/2001/REC-SVG-20010904/DTD/svg10.dtd">
<svg version="1.0" xmlns="http://www.w3.org/2000/svg"
 width="512.000000pt" height="512.000000pt" viewBox="0 0 512.000000 512.000000"
 preserveAspectRatio="xMidYMid meet">
<metadata>
Created by potrace 1.16, written by Peter Selinger 2001-2019
</metadata>
<g transform="translate(0.000000,512.000000) scale(0.100000,-0.100000)"
fill="#000000" stroke="none">
<path d="M239 4976 c-87 -31 -174 -110 -212 -194 l-22 -47 0 -1245 0 -1245 30
-58 c37 -75 118 -149 190 -176 55 -21 71 -21 911 -21 l855 0 -8 -62 c-4 -35
-8 -146 -8 -248 0 -155 4 -202 23 -288 69 -312 207 -568 425 -791 246 -251
539 -403 878 -457 155 -25 457 -15 599 19 517 123 948 503 1130 996 34 93 36
120 15 161 -19 37 -43 50 -94 50 -54 0 -83 -29 -111 -110 -70 -199 -178 -368
-330 -520 -294 -293 -665 -433 -1059 -399 -548 48 -1035 423 -1204 929 -50
152 -62 232 -61 425 0 201 17 308 75 472 155 438 512 754 974 861 326 76 646
39 941 -109 183 -91 375 -260 489 -429 62 -93 146 -259 175 -345 26 -79 55
-105 117 -105 50 0 87 29 99 76 10 39 -26 146 -97 289 -233 472 -672 787
-1197 861 -207 29 -510 6 -670 -50 l-42 -15 -2 767 -3 767 -30 58 c-37 75
-118 149 -190 176 -55 21 -66 21 -1303 21 -993 -1 -1254 -4 -1283 -14z m773
-517 l3 -331 33 -29 32 -29 445 0 445 0 32 29 33 29 3 331 3 331 322 0 c337 0
383 -5 425 -43 54 -50 52 -17 52 -854 l0 -778 -68 -36 c-182 -99 -381 -276
-504 -450 -74 -103 -163 -269 -198 -367 l-23 -62 -867 0 -867 0 -33 23 c-19
12 -43 38 -54 57 -21 35 -21 43 -21 1210 0 1075 1 1178 17 1205 24 44 62 76
100 85 18 4 180 8 360 9 l327 1 3 -331z m818 76 l0 -255 -305 0 -305 0 0 255
0 255 305 0 305 0 0 -255z"/>
<path d="M546 2660 c-62 -19 -91 -80 -66 -141 24 -57 32 -59 286 -59 l231 0
27 26 c20 21 26 37 26 71 0 56 -23 90 -69 103 -43 12 -394 12 -435 0z"/>
<path d="M3454 4586 c-51 -36 -55 -123 -8 -167 l26 -24 428 -5 428 -5 27 -25
c52 -47 55 -69 55 -340 l0 -252 -41 35 c-42 37 -73 47 -114 39 -32 -6 -71 -45
-77 -77 -11 -56 4 -79 141 -217 149 -149 178 -166 237 -135 16 9 89 76 162
150 125 127 132 136 132 174 0 49 -29 89 -73 101 -43 12 -84 -1 -124 -40 l-33
-32 0 260 c0 202 -3 273 -15 319 -26 100 -85 172 -180 223 l-50 27 -450 3
c-386 2 -453 0 -471 -12z"/>
<path d="M3387 2839 c-258 -38 -481 -152 -663 -340 -155 -161 -250 -337 -301
-562 -23 -100 -23 -333 0 -450 95 -480 435 -817 910 -902 145 -26 385 -17 522
19 134 36 318 127 422 210 189 151 325 376 384 635 26 115 35 314 20 422 -54
366 -294 695 -629 863 -185 93 -456 136 -665 105z m426 -243 c350 -105 589
-374 652 -733 84 -479 -210 -935 -687 -1065 -70 -20 -106 -23 -238 -22 -139 0
-164 3 -244 28 -331 101 -569 346 -657 676 -34 125 -32 316 4 455 93 352 347
599 697 676 129 28 353 21 473 -15z"/>
<path d="M3484 2456 c-31 -31 -34 -39 -34 -95 l0 -61 -47 -24 c-62 -32 -126
-98 -155 -161 -32 -69 -32 -199 -2 -266 47 -100 115 -152 283 -215 117 -44
129 -50 163 -82 33 -31 42 -68 29 -120 -15 -52 -44 -88 -94 -113 -34 -18 -54
-21 -118 -17 -63 4 -86 10 -134 37 -71 40 -126 39 -162 -4 -32 -36 -32 -104 0
-139 29 -32 117 -77 181 -91 l51 -11 6 -55 c7 -70 15 -87 50 -104 35 -19 72
-19 108 -1 35 19 51 55 51 116 l0 49 54 24 c218 100 290 391 142 572 -40 49
-101 83 -222 126 -150 53 -189 79 -200 136 -8 42 10 86 48 118 57 48 131 42
204 -16 66 -52 148 -31 174 45 22 67 -41 146 -148 186 l-47 18 -5 62 c-4 54
-9 65 -38 91 -46 42 -93 40 -138 -5z"/>
<path d="M4968 1794 c-36 -19 -48 -43 -48 -94 0 -33 6 -48 29 -71 65 -64 171
-20 171 71 0 54 -14 79 -55 96 -43 17 -63 17 -97 -2z"/>
<path d="M584 1713 c-11 -2 -85 -68 -163 -147 -138 -138 -144 -146 -144 -185
0 -109 118 -145 199 -60 l29 30 5 -293 5 -293 28 -57 c35 -71 110 -140 183
-167 53 -20 75 -21 583 -21 l529 0 26 31 c50 59 28 149 -43 169 -22 6 -224 10
-519 10 -533 0 -523 -1 -562 63 -18 30 -20 52 -20 296 l0 265 33 -31 c17 -18
44 -36 59 -42 68 -25 138 27 138 101 0 40 -6 47 -137 180 -75 76 -146 141
-158 144 -34 10 -49 11 -71 7z"/>
</g>
</svg>
