<?xml version="1.0" standalone="no"?>
<!DOCTYPE svg PUBLIC "-//W3C//DTD SVG 20010904//EN"
 "http://www.w3.org/TR/2001/REC-SVG-20010904/DTD/svg10.dtd">
<svg version="1.0" xmlns="http://www.w3.org/2000/svg"
 width="512.000000pt" height="512.000000pt" viewBox="0 0 512.000000 512.000000"
 preserveAspectRatio="xMidYMid meet">
<metadata>
Created by potrace 1.16, written by Peter Selinger 2001-2019
</metadata>
<g transform="translate(0.000000,512.000000) scale(0.100000,-0.100000)"
fill="#000000" stroke="none">
<path d="M765 4523 c-39 -10 -84 -53 -96 -92 -6 -21 -10 -78 -8 -129 6 -145
47 -182 207 -182 l92 0 0 -29 c0 -28 -2 -29 -62 -36 -81 -9 -216 -48 -295 -84
l-61 -29 -54 66 c-73 90 -87 102 -123 102 -61 0 -96 -50 -75 -106 6 -15 33
-53 61 -85 l51 -59 -89 -88 c-139 -138 -224 -281 -279 -467 -36 -122 -45 -349
-20 -475 59 -291 218 -525 466 -685 335 -217 796 -212 1133 12 479 319 606
963 285 1453 -23 36 -84 107 -136 158 l-93 94 38 45 c60 73 73 96 73 129 0 43
-32 74 -77 74 -37 0 -56 -16 -140 -120 l-38 -47 -72 34 c-76 35 -190 67 -280
79 -50 6 -53 8 -53 35 l0 29 88 0 c158 0 197 41 197 205 0 112 -13 148 -69
181 -28 17 -56 19 -291 21 -143 1 -269 -1 -280 -4z m485 -198 l0 -45 -215 0
-215 0 0 45 0 45 215 0 215 0 0 -45z m11 -450 c158 -40 353 -166 459 -298 64
-80 144 -240 171 -342 27 -104 30 -298 5 -399 -122 -506 -629 -803 -1115 -654
-263 80 -484 294 -575 554 -38 108 -49 193 -44 333 5 105 11 142 37 221 146
447 605 700 1062 585z"/>
<path d="M881 3809 c-286 -56 -520 -268 -611 -554 -31 -98 -39 -282 -16 -393
60 -299 285 -534 582 -613 110 -29 288 -29 399 0 289 77 499 286 576 576 29
110 29 288 0 399 -77 293 -305 513 -601 581 -71 16 -256 18 -329 4z m291 -160
c73 -15 203 -77 266 -128 199 -158 285 -445 208 -687 -67 -209 -244 -377 -456
-430 -230 -59 -495 29 -648 216 -53 64 -115 192 -131 268 -16 75 -14 217 4
287 57 224 242 411 465 469 66 18 219 20 292 5z"/>
<path d="M1000 3557 c-50 -25 -53 -47 -45 -321 l7 -251 118 -117 c97 -98 122
-118 147 -118 47 0 83 34 83 78 0 33 -10 46 -95 132 l-94 95 -7 233 c-6 192
-10 237 -23 252 -22 26 -61 33 -91 17z"/>
<path d="M2257 3378 c-27 -22 -39 -66 -25 -96 26 -53 5 -52 836 -52 l772 0 0
-23 c0 -30 -52 -357 -140 -887 -38 -228 -85 -525 -105 -660 -19 -135 -38 -257
-41 -273 l-6 -27 -913 0 -913 0 -21 33 c-11 17 -37 48 -58 68 -94 88 -177 121
-303 120 -144 -1 -259 -55 -358 -168 l-47 -54 -121 3 -120 3 33 205 c36 220
35 235 -11 265 -32 21 -81 12 -101 -19 -8 -12 -37 -163 -65 -336 -57 -349 -57
-373 0 -442 46 -56 83 -68 203 -68 l104 0 17 -59 c32 -116 127 -225 238 -276
223 -101 496 4 612 237 20 39 36 78 36 86 0 13 28 14 233 9 127 -4 575 -7 994
-7 l762 0 12 -42 c56 -211 276 -353 491 -318 162 26 324 159 383 314 l17 44
79 4 c96 6 159 39 201 108 29 48 47 153 148 857 44 305 48 372 22 420 -9 17
-102 128 -205 247 -140 160 -199 220 -231 235 -40 20 -59 21 -380 21 l-338 0
6 28 c17 81 47 304 48 349 1 65 -29 116 -83 143 -37 19 -62 20 -842 20 -627 0
-807 -3 -820 -12z m2519 -893 c127 -146 180 -214 182 -234 3 -30 -130 -963
-154 -1074 -7 -33 -48 -57 -99 -57 -34 0 -35 1 -35 38 0 82 -51 205 -116 281
-137 159 -389 190 -576 70 -105 -68 -202 -210 -228 -335 -10 -50 -14 -54 -39
-54 l-28 0 13 104 c23 189 73 516 151 994 l78 472 336 0 336 0 179 -205z
m-433 -1087 c172 -73 220 -330 95 -504 -41 -57 -133 -119 -197 -133 -102 -22
-213 22 -276 107 -141 190 -35 483 198 547 60 16 112 11 180 -17z m-2885 -4
c56 -28 100 -72 134 -137 20 -36 23 -57 23 -142 0 -90 -3 -106 -29 -159 -83
-169 -263 -244 -410 -172 -64 31 -99 69 -135 146 -22 46 -26 69 -26 140 0 71
4 94 27 142 81 173 269 255 416 182z m2072 -211 c0 -10 -3 -28 -6 -40 l-6 -23
-697 0 c-383 0 -774 3 -868 7 l-173 6 0 34 0 33 875 0 c827 0 875 -1 875 -17z"/>
<path d="M4075 2593 c-32 -8 -74 -42 -90 -73 -20 -39 -106 -581 -99 -620 9
-44 59 -88 108 -95 23 -4 199 -5 393 -3 337 3 353 4 379 24 54 40 64 65 85
205 15 101 18 142 10 169 -15 51 -298 374 -341 389 -33 11 -403 14 -445 4z
m507 -297 l125 -144 -13 -89 c-8 -48 -14 -91 -14 -95 0 -5 -142 -8 -316 -8
l-317 0 7 38 c3 20 20 128 38 240 l32 202 166 0 167 0 125 -144z"/>
<path d="M4115 1320 c-133 -68 -185 -228 -118 -359 37 -73 93 -113 167 -119
75 -6 115 3 170 39 148 99 149 338 1 429 -54 33 -165 38 -220 10z m130 -146
c25 -10 46 -59 39 -93 -22 -106 -154 -106 -154 0 0 66 60 114 115 93z"/>
<path d="M1225 1320 c-173 -89 -199 -337 -47 -443 40 -27 58 -32 117 -35 62
-3 77 0 125 25 101 53 156 175 131 287 -15 68 -44 112 -98 150 -57 39 -167 47
-228 16z m130 -146 c25 -10 47 -62 40 -94 -9 -40 -52 -80 -86 -80 -70 0 -95
95 -40 151 29 28 53 35 86 23z"/>
<path d="M2726 2729 c-20 -16 -26 -29 -26 -57 0 -20 6 -44 13 -52 7 -9 73 -65
147 -125 l134 -110 -484 -5 c-267 -3 -492 -9 -501 -13 -19 -9 -39 -49 -39 -76
0 -10 9 -30 21 -45 l20 -26 496 -2 496 -3 -134 -109 c-160 -130 -169 -139
-169 -180 0 -60 50 -97 102 -77 24 10 487 384 500 405 14 20 8 74 -9 94 -18
19 -351 293 -446 365 -55 42 -83 46 -121 16z"/>
</g>
</svg>
