<?xml version="1.0" standalone="no"?>
<!DOCTYPE svg PUBLIC "-//W3C//DTD SVG 20010904//EN"
 "http://www.w3.org/TR/2001/REC-SVG-20010904/DTD/svg10.dtd">
<svg version="1.0" xmlns="http://www.w3.org/2000/svg"
 width="512.000000pt" height="512.000000pt" viewBox="0 0 512.000000 512.000000"
 preserveAspectRatio="xMidYMid meet">

<g transform="translate(0.000000,512.000000) scale(0.100000,-0.100000)"
fill="#000000" stroke="none">
<path d="M696 4869 c-36 -28 -36 -80 0 -108 23 -18 41 -21 121 -21 l94 0 -3
-152 -3 -153 -60 -7 c-193 -24 -395 -126 -546 -277 -384 -384 -381 -996 7
-1377 l62 -62 -143 -633 c-184 -813 -229 -1039 -220 -1096 7 -51 55 -118 105
-148 32 -18 55 -20 248 -23 l212 -4 6 -26 c69 -313 389 -508 685 -418 65 20
125 52 133 71 12 31 6 72 -13 89 -26 24 -66 22 -131 -4 -42 -18 -75 -23 -140
-24 -75 0 -93 3 -152 31 -90 42 -160 109 -201 192 -60 123 -47 279 34 397 88
128 272 193 425 150 218 -63 341 -299 265 -511 -27 -76 -26 -90 4 -120 63 -64
125 -7 159 148 l6 27 753 0 754 0 11 -51 c43 -185 192 -337 386 -397 66 -20
216 -20 282 0 194 59 343 212 385 396 l12 51 271 3 271 3 55 31 c94 54 105 76
200 449 101 394 106 439 52 547 -38 77 -92 130 -171 166 -54 26 -64 27 -279
30 -259 5 -246 -1 -255 118 -25 317 -250 590 -562 680 -47 13 -114 18 -317 21
-187 4 -258 8 -258 16 0 7 7 50 15 97 29 162 14 220 -64 260 -39 19 -56 20
-651 20 -578 0 -611 1 -606 18 16 48 24 209 15 290 -18 166 -32 196 -95 196
-51 0 -78 -34 -70 -89 32 -215 29 -303 -16 -445 -115 -361 -483 -606 -858
-570 -288 27 -544 202 -665 455 -60 125 -78 204 -77 350 0 201 55 364 177 525
169 221 452 337 734 300 224 -29 415 -136 551 -309 67 -85 93 -100 138 -79 38
18 50 59 30 100 -46 92 -195 237 -319 311 -88 52 -198 92 -304 113 -50 9 -96
18 -102 20 -10 3 -13 42 -13 154 l0 150 95 0 c88 0 98 2 120 25 32 31 32 69 0
100 l-24 25 -264 0 c-252 0 -266 -1 -291 -21z m2424 -1783 c0 -18 -279 -1627
-285 -1643 -3 -10 -273 -13 -1300 -13 -1160 0 -1295 2 -1295 15 0 19 259 1167
264 1172 2 3 27 -7 55 -21 114 -58 205 -84 340 -95 396 -35 776 176 949 527
l36 72 618 0 c519 0 618 -2 618 -14z m680 -404 c187 -61 344 -219 401 -402 11
-36 24 -106 29 -156 9 -99 22 -134 67 -176 43 -42 94 -58 177 -58 l75 0 37
-57 c76 -120 198 -235 304 -288 19 -10 36 -19 38 -20 2 -2 -25 -115 -59 -251
-52 -205 -68 -253 -90 -278 l-27 -31 -258 0 -257 0 -16 60 c-65 236 -285 405
-526 405 -241 0 -464 -172 -525 -405 l-15 -60 -123 -3 c-104 -2 -122 0 -122
13 0 14 283 1646 296 1708 l6 29 261 -4 c235 -4 269 -7 327 -26z m1071 -818
c40 -20 86 -86 94 -135 4 -22 5 -43 2 -46 -16 -15 -171 113 -220 181 l-21 29
58 -7 c32 -3 71 -13 87 -22z m-4163 -611 c-33 -35 -94 -136 -107 -177 -5 -17
-15 -50 -21 -73 l-11 -43 -179 0 c-98 0 -190 4 -204 10 -14 5 -28 20 -31 32
-3 13 6 79 20 147 14 68 25 125 25 127 0 2 120 4 267 4 l267 0 -26 -27z m2097
5 c-3 -13 -14 -77 -26 -143 -11 -66 -22 -128 -25 -137 -5 -17 -40 -18 -552
-18 l-547 0 -27 84 c-28 88 -61 149 -112 204 l-30 32 662 0 662 0 -5 -22z
m996 6 c195 -58 319 -257 280 -447 -64 -312 -440 -429 -661 -207 -151 150
-156 388 -12 543 55 58 96 84 170 108 71 23 153 24 223 3z"/>
<path d="M566 2349 c-34 -27 -35 -71 -1 -104 23 -24 30 -25 139 -25 127 0 160
9 174 50 11 32 -7 84 -33 94 -9 3 -70 6 -134 6 -105 0 -121 -2 -145 -21z"/>
<path d="M950 2170 c-25 -25 -26 -71 -1 -101 l19 -24 379 -3 c208 -2 388 0
401 3 60 15 81 83 39 123 -23 22 -26 22 -420 22 -384 0 -398 -1 -417 -20z"/>
<path d="M662 1877 c-31 -33 -29 -80 4 -106 25 -20 39 -21 280 -21 167 0 262
4 278 11 51 23 55 103 7 128 -12 7 -117 11 -284 11 -263 0 -264 0 -285 -23z"/>
<path d="M1654 1753 c-55 -11 -76 -85 -36 -126 18 -18 36 -22 116 -25 53 -2
111 -1 131 2 88 17 102 115 21 146 -26 10 -187 12 -232 3z"/>
<path d="M3357 2566 c-80 -29 -95 -61 -128 -273 l-22 -143 24 -46 c17 -33 37
-54 64 -68 38 -20 54 -21 375 -21 317 0 337 1 369 20 56 33 75 67 79 143 4 78
-19 156 -68 227 -35 51 -70 65 -109 44 -48 -27 -49 -60 -8 -142 21 -40 37 -86
37 -104 l0 -33 -304 0 -303 0 14 88 c7 48 17 105 21 127 l8 40 173 5 c156 5
174 7 187 24 20 28 17 69 -5 97 -19 23 -24 24 -193 26 -128 2 -183 -1 -211
-11z"/>
<path d="M3333 1798 c-48 -23 -51 -103 -4 -127 11 -6 75 -11 144 -11 116 0
125 1 145 23 31 33 29 80 -4 106 -24 19 -40 21 -143 20 -64 0 -126 -5 -138
-11z"/>
<path d="M3615 1177 c-94 -32 -159 -88 -196 -171 -24 -56 -29 -148 -11 -211
20 -67 80 -136 151 -172 54 -28 73 -33 135 -33 61 0 83 5 134 31 108 54 165
144 165 264 0 85 -23 144 -82 208 -71 76 -204 114 -296 84z m164 -165 c119
-88 62 -272 -84 -272 -132 0 -196 146 -109 249 44 53 139 64 193 23z"/>
<path d="M1275 3966 c-11 -8 -65 -75 -120 -149 l-100 -135 -51 5 c-66 7 -116
-10 -167 -56 -156 -140 -60 -386 150 -385 80 1 144 37 188 108 25 41 30 60 30
110 -1 37 -7 73 -18 93 l-17 31 100 132 c55 73 105 140 110 150 16 31 11 60
-15 85 -27 28 -61 32 -90 11z m-254 -437 c49 -26 43 -107 -10 -129 -75 -31
-134 58 -76 115 26 27 54 31 86 14z"/>
<path d="M1013 1172 c-215 -77 -272 -350 -106 -503 68 -63 123 -82 218 -77 94
5 130 21 198 86 147 144 100 400 -90 484 -64 28 -157 33 -220 10z m167 -155
c138 -73 86 -277 -71 -277 -137 0 -198 163 -97 257 50 47 105 54 168 20z"/>
<path d="M125 633 c-36 -9 -55 -34 -55 -73 0 -66 12 -70 217 -70 168 0 181 1
198 20 25 28 23 76 -4 103 -20 21 -31 22 -179 24 -86 1 -166 -1 -177 -4z"/>
<path d="M297 352 c-24 -27 -22 -85 4 -108 19 -17 38 -19 195 -19 165 0 174 1
195 22 27 27 29 75 4 103 -17 19 -30 20 -200 20 -164 0 -184 -2 -198 -18z"/>
</g>
</svg>
