<?xml version="1.0" standalone="no"?>
<!DOCTYPE svg PUBLIC "-//W3C//DTD SVG 20010904//EN"
 "http://www.w3.org/TR/2001/REC-SVG-20010904/DTD/svg10.dtd">
<svg version="1.0" xmlns="http://www.w3.org/2000/svg"
 width="512.000000pt" height="512.000000pt" viewBox="0 0 512.000000 512.000000"
 preserveAspectRatio="xMidYMid meet">
<metadata>
Created by potrace 1.16, written by Peter Selinger 2001-2019
</metadata>
<g transform="translate(0.000000,512.000000) scale(0.100000,-0.100000)"
fill="#000000" stroke="none">
<path d="M1145 5113 c-366 -32 -593 -118 -793 -300 l-52 -48 286 -330 c157
-181 294 -338 303 -349 18 -17 21 -16 83 46 179 179 408 270 778 309 141 14
1157 21 1445 9 395 -17 587 -63 778 -186 258 -167 406 -424 459 -799 10 -67
13 -298 13 -910 0 -894 -2 -931 -60 -1136 -84 -296 -279 -526 -537 -631 -69
-28 -76 -34 -64 -47 277 -312 564 -656 559 -669 -3 -10 -1 -13 4 -7 4 6 19 11
31 13 41 4 163 62 247 117 256 166 417 428 475 772 20 116 20 153 17 1638 l-3
1520 -26 105 c-48 192 -113 334 -215 467 -135 178 -345 315 -572 373 -192 50
-188 50 -1701 48 -778 -1 -1433 -3 -1455 -5z"/>
<path d="M1945 4100 c-417 -16 -627 -80 -735 -224 -71 -95 -94 -52 237 -435
l297 -343 20 28 c38 53 151 166 216 216 80 61 219 130 325 160 69 20 103 23
250 23 146 0 182 -3 253 -23 309 -84 560 -315 666 -613 47 -130 60 -223 53
-376 -7 -183 -46 -313 -139 -463 -84 -136 -241 -286 -365 -349 -24 -12 -43
-24 -43 -26 0 -3 120 -144 266 -313 300 -346 263 -320 395 -276 193 63 330
196 394 381 53 152 70 366 81 1043 15 840 -49 1196 -250 1395 -104 103 -205
147 -421 182 -106 17 -1146 26 -1500 13z m1743 -337 c28 -17 59 -48 77 -77 26
-42 30 -59 30 -115 -1 -103 -43 -168 -135 -210 -82 -37 -169 -24 -240 36 -128
110 -100 306 54 380 68 32 148 27 214 -14z"/>
<path d="M2462 3180 c-194 -27 -353 -134 -441 -299 l-33 -62 24 -29 c12 -17
178 -210 368 -430 393 -456 347 -421 476 -358 92 44 197 148 246 243 49 94 68
163 75 270 20 309 -161 576 -438 648 -74 20 -201 27 -277 17z"/>
</g>
</svg>
