<?xml version="1.0" standalone="no"?>
<!DOCTYPE svg PUBLIC "-//W3C//DTD SVG 20010904//EN"
 "http://www.w3.org/TR/2001/REC-SVG-20010904/DTD/svg10.dtd">
<svg version="1.0" xmlns="http://www.w3.org/2000/svg"
 width="512.000000pt" height="512.000000pt" viewBox="0 0 512.000000 512.000000"
 preserveAspectRatio="xMidYMid meet">

<g transform="translate(0.000000,512.000000) scale(0.100000,-0.100000)"
fill="#000000" stroke="none">
<path d="M2355 5108 c-755 -85 -1390 -644 -1570 -1380 -112 -459 -48 -914 200
-1408 147 -294 284 -501 748 -1127 374 -505 594 -839 722 -1092 35 -69 67
-101 102 -101 46 0 67 23 138 152 161 291 296 488 752 1095 353 470 494 674
617 894 294 524 388 1035 280 1517 -210 936 -1060 1555 -1989 1450z m435 -888
c104 -25 264 -101 347 -164 175 -133 305 -332 360 -552 24 -95 24 -333 0 -428
-88 -353 -349 -621 -695 -713 -133 -36 -333 -38 -466 -5 -327 81 -588 327
-689 647 -141 446 66 930 488 1143 72 36 208 79 290 92 88 13 267 4 365 -20z"/>
</g>
</svg>
