<?xml version="1.0" standalone="no"?>
<!DOCTYPE svg PUBLIC "-//W3C//DTD SVG 20010904//EN"
 "http://www.w3.org/TR/2001/REC-SVG-20010904/DTD/svg10.dtd">
<svg version="1.0" xmlns="http://www.w3.org/2000/svg"
 width="512.000000pt" height="512.000000pt" viewBox="0 0 512.000000 512.000000"
 preserveAspectRatio="xMidYMid meet">

<g transform="translate(0.000000,512.000000) scale(0.100000,-0.100000)"
fill="#000000" stroke="none">
<path d="M2433 5110 c-362 -31 -699 -191 -949 -451 -434 -453 -542 -1115 -274
-1686 132 -283 396 -551 685 -696 91 -45 258 -101 365 -122 47 -9 96 -19 109
-21 l24 -5 -4 -822 c-4 -770 -3 -824 14 -854 72 -133 242 -133 314 0 17 30 18
84 14 854 l-4 822 24 5 c13 2 62 12 109 21 107 21 274 77 365 122 289 145 553
413 685 696 268 571 160 1233 -274 1686 -310 322 -755 489 -1203 451z"/>
</g>
</svg>
