<?xml version="1.0" standalone="no"?>
<!DOCTYPE svg PUBLIC "-//W3C//DTD SVG 20010904//EN"
 "http://www.w3.org/TR/2001/REC-SVG-20010904/DTD/svg10.dtd">
<svg version="1.0" xmlns="http://www.w3.org/2000/svg"
 width="512.000000pt" height="512.000000pt" viewBox="0 0 512.000000 512.000000"
 preserveAspectRatio="xMidYMid meet">

<g transform="translate(0.000000,512.000000) scale(0.100000,-0.100000)"
fill="#000000" stroke="none">
<path d="M2420 5114 c-233 -26 -357 -54 -521 -114 -588 -215 -1046 -722 -1198
-1325 -58 -231 -73 -540 -38 -780 126 -855 614 -1772 1371 -2575 195 -206 251
-251 364 -292 80 -29 244 -29 324 0 113 41 169 86 364 292 757 803 1245 1720
1371 2575 23 160 23 450 -1 595 -68 419 -247 771 -541 1065 -291 291 -646 473
-1055 540 -93 15 -370 27 -440 19z m370 -388 c346 -57 626 -201 870 -447 340
-345 492 -813 425 -1318 -104 -787 -605 -1705 -1334 -2443 l-136 -138 -55 0
-55 0 -136 138 c-793 803 -1317 1823 -1346 2619 -11 297 47 554 180 795 232
425 635 710 1117 793 103 17 365 18 470 1z"/>
<path d="M2345 4435 c-718 -134 -1149 -859 -928 -1559 93 -296 318 -557 603
-701 168 -85 342 -125 540 -125 198 0 372 40 540 125 531 268 784 876 603
1449 -94 297 -317 556 -603 701 -96 48 -251 99 -350 115 -89 14 -320 11 -405
-5z m415 -380 c36 -9 106 -36 156 -60 175 -85 305 -215 389 -389 62 -131 79
-206 79 -356 0 -150 -17 -225 -79 -356 -84 -174 -215 -305 -389 -389 -131 -62
-206 -79 -356 -79 -150 0 -225 17 -356 79 -221 106 -389 311 -450 550 -25 96
-25 294 0 390 80 313 341 560 655 620 91 18 256 13 351 -10z"/>
</g>
</svg>
