<?xml version="1.0" standalone="no"?>
<!DOCTYPE svg PUBLIC "-//W3C//DTD SVG 20010904//EN"
 "http://www.w3.org/TR/2001/REC-SVG-20010904/DTD/svg10.dtd">
<svg version="1.0" xmlns="http://www.w3.org/2000/svg"
 width="512.000000pt" height="512.000000pt" viewBox="0 0 512.000000 512.000000"
 preserveAspectRatio="xMidYMid meet">

<g transform="translate(0.000000,512.000000) scale(0.100000,-0.100000)"
fill="#000000" stroke="none">
<path d="M1588 5099 c-23 -12 -46 -35 -58 -59 -20 -38 -20 -57 -20 -970 0
-894 1 -932 19 -968 11 -22 35 -46 59 -60 l40 -22 931 0 c895 0 933 1 969 19
22 11 46 35 60 59 l22 40 0 932 0 932 -22 40 c-41 73 -63 78 -338 78 l-240 0
0 -303 c0 -275 -2 -305 -19 -337 -25 -47 -60 -71 -114 -77 -41 -5 -61 2 -185
61 l-140 66 -129 -62 c-179 -87 -235 -85 -300 12 -23 32 -23 38 -23 336 l0
304 -237 0 c-217 -1 -241 -3 -275 -21z"/>
<path d="M2400 4955 c0 -91 2 -165 5 -165 3 0 28 11 55 25 31 16 66 25 95 25
29 0 64 -9 95 -25 27 -14 52 -25 55 -25 3 0 5 74 5 165 l0 165 -155 0 -155 0
0 -165z"/>
<path d="M263 3761 c-96 -25 -186 -101 -230 -195 l-28 -61 0 -900 0 -900 110
-407 110 -408 713 0 c678 0 713 1 708 18 -3 9 -78 287 -166 617 -88 330 -168
620 -177 645 -39 107 -129 187 -242 216 -115 29 -221 1 -311 -83 l-59 -54 -3
633 c-3 630 -3 633 -25 681 -31 66 -102 139 -169 171 -61 30 -170 43 -231 27z"/>
<path d="M4695 3761 c-100 -27 -188 -99 -232 -190 l-28 -56 -3 -633 -3 -633
-59 54 c-73 68 -135 92 -240 92 -63 0 -86 -5 -135 -30 -69 -33 -135 -97 -163
-157 -12 -24 -95 -322 -186 -663 -92 -341 -169 -628 -172 -637 -5 -17 33 -18
708 -18 l713 0 110 408 110 407 0 900 0 900 -28 61 c-55 119 -163 193 -290
199 -40 3 -85 1 -102 -4z"/>
<path d="M78 569 c-24 -12 -46 -35 -58 -60 -20 -37 -21 -55 -18 -227 3 -179 4
-188 27 -221 46 -64 -5 -61 1058 -61 956 0 967 0 1009 21 73 35 84 72 84 274
0 151 -2 173 -21 212 -14 30 -33 50 -60 63 -37 19 -63 20 -1011 20 -949 -1
-974 -1 -1010 -21z"/>
<path d="M3017 568 c-66 -39 -77 -78 -77 -273 0 -202 11 -239 84 -274 42 -21
53 -21 1010 -21 930 0 968 1 1004 19 22 11 46 35 60 59 20 37 22 52 22 216 0
206 -10 240 -80 276 -39 20 -57 20 -1012 20 l-973 0 -38 -22z"/>
</g>
</svg>
