<?xml version="1.0" standalone="no"?>
<!DOCTYPE svg PUBLIC "-//W3C//DTD SVG 20010904//EN"
 "http://www.w3.org/TR/2001/REC-SVG-20010904/DTD/svg10.dtd">
<svg version="1.0" xmlns="http://www.w3.org/2000/svg"
 width="512.000000pt" height="512.000000pt" viewBox="0 0 512.000000 512.000000"
 preserveAspectRatio="xMidYMid meet">

<g transform="translate(0.000000,512.000000) scale(0.100000,-0.100000)"
fill="#000000" stroke="none">
<path d="M2089 4394 c-244 -141 -455 -267 -469 -280 l-25 -24 0 -534 c0 -519
1 -535 20 -561 27 -36 910 -545 945 -545 35 0 918 509 945 545 19 26 20 42 20
561 l0 534 -25 24 c-42 40 -911 536 -940 536 -16 0 -198 -99 -471 -256z m585
-25 c58 -33 106 -64 106 -69 0 -7 -606 -361 -643 -376 -14 -5 -237 114 -237
126 1 7 643 378 657 379 6 1 59 -26 117 -60z m436 -251 c60 -35 110 -65 110
-68 0 -6 -638 -373 -655 -378 -16 -4 -227 118 -223 130 3 9 637 378 651 378 4
0 57 -28 117 -62z m-968 -441 l317 -182 1 -382 c0 -211 -3 -383 -7 -383 -5 1
-154 86 -333 189 l-325 188 -3 383 c-2 361 -1 382 15 376 10 -4 161 -89 335
-189z m1186 -188 l-3 -382 -325 -188 c-179 -103 -328 -188 -332 -189 -5 0 -8
172 -8 383 l1 382 327 188 c179 103 330 187 334 187 5 0 7 -172 6 -381z"/>
<path d="M195 3513 c-132 -48 -209 -164 -191 -291 8 -57 26 -85 65 -102 38
-15 75 -7 107 25 20 20 24 34 24 80 0 41 5 60 20 75 43 43 118 33 139 -18 6
-15 45 -180 88 -367 71 -318 77 -348 77 -460 1 -111 3 -124 29 -174 38 -72
434 -650 461 -672 57 -48 156 0 156 75 0 28 -22 67 -112 201 -361 530 -339
495 -336 539 2 32 9 44 30 55 42 24 73 6 156 -89 158 -180 275 -301 315 -324
23 -14 107 -44 187 -67 301 -86 455 -189 590 -396 83 -125 149 -311 166 -460
l7 -63 -396 0 -396 0 -304 164 c-414 223 -455 250 -512 341 -59 94 -78 167
-165 620 -33 176 -65 335 -71 352 -24 74 -107 97 -160 44 -39 -39 -38 -57 16
-340 99 -517 120 -601 176 -719 76 -158 170 -231 571 -447 l237 -128 -14 -35
c-11 -24 -15 -74 -15 -171 0 -150 11 -190 66 -244 65 -64 39 -62 603 -65 l514
-3 54 27 c105 51 139 138 131 324 -6 123 -24 168 -88 223 -41 35 -41 36 -55
139 -40 306 -162 559 -361 749 -137 130 -274 204 -504 269 -79 23 -155 47
-169 55 -32 16 -101 88 -249 261 -143 166 -179 189 -299 189 -46 0 -83 1 -83
2 0 21 -144 644 -155 670 -55 132 -216 204 -350 156z m2099 -2649 c21 -21 23
-186 2 -203 -9 -8 -144 -10 -482 -9 l-469 3 -3 104 c-2 77 1 107 10 113 7 4
219 8 470 8 402 0 458 -2 472 -16z"/>
<path d="M4753 3516 c-86 -28 -146 -82 -178 -160 -11 -25 -155 -649 -155 -669
0 -1 -37 -2 -82 -2 -120 0 -157 -23 -295 -183 -150 -176 -222 -251 -253 -267
-14 -7 -91 -32 -170 -55 -230 -65 -367 -139 -504 -269 -199 -190 -320 -441
-360 -747 -14 -105 -15 -106 -56 -141 -64 -55 -82 -100 -88 -223 -8 -186 26
-273 131 -324 l54 -27 514 3 c564 3 538 1 603 65 55 54 66 94 66 244 0 97 -4
147 -15 171 l-14 35 237 128 c401 216 495 289 571 447 47 99 111 334 111 409
0 46 -48 89 -97 89 -73 0 -87 -21 -123 -185 -53 -240 -103 -322 -259 -420 -25
-15 -181 -101 -348 -191 l-304 -164 -396 0 -396 0 7 63 c17 149 83 335 166
460 135 207 289 310 590 396 80 23 164 53 187 67 40 23 157 144 315 324 83 95
114 113 156 89 21 -11 28 -23 30 -55 3 -38 -6 -55 -112 -210 -63 -93 -164
-242 -225 -332 -90 -131 -111 -170 -111 -198 0 -75 99 -123 156 -75 27 22 423
600 461 672 26 50 28 63 29 174 0 112 6 142 77 460 43 187 82 352 88 366 10
26 46 49 75 49 29 0 74 -31 80 -54 3 -13 -22 -167 -56 -342 -58 -302 -60 -321
-46 -351 31 -64 115 -76 160 -23 19 23 32 76 75 296 75 383 78 407 58 474 -9
32 -32 74 -52 97 -69 81 -205 121 -302 89z m-985 -2644 c9 -6 12 -36 10 -113
l-3 -104 -469 -3 c-338 -1 -473 1 -482 9 -21 17 -19 182 2 203 14 14 70 16
472 16 251 0 463 -4 470 -8z"/>
<path d="M144 2911 c-12 -5 -31 -22 -44 -38 -17 -22 -21 -36 -17 -68 16 -115
178 -115 194 1 4 35 1 46 -23 73 -31 33 -76 46 -110 32z"/>
<path d="M4797 2424 c-50 -27 -63 -105 -24 -149 14 -17 36 -28 63 -32 36 -5
46 -1 75 25 28 25 34 37 34 72 0 35 -6 47 -33 71 -36 32 -72 36 -115 13z"/>
</g>
</svg>
