<?xml version="1.0" standalone="no"?>
<!DOCTYPE svg PUBLIC "-//W3C//DTD SVG 20010904//EN"
 "http://www.w3.org/TR/2001/REC-SVG-20010904/DTD/svg10.dtd">
<svg version="1.0" xmlns="http://www.w3.org/2000/svg"
 width="512.000000pt" height="512.000000pt" viewBox="0 0 512.000000 512.000000"
 preserveAspectRatio="xMidYMid meet">

<g transform="translate(0.000000,512.000000) scale(0.100000,-0.100000)"
fill="#000000" stroke="none">
<path d="M2214 4945 c-107 -23 -191 -71 -279 -160 -91 -90 -137 -171 -160
-282 -20 -94 -20 -403 0 -458 8 -22 15 -40 15 -41 0 0 -24 -6 -54 -13 -94 -21
-174 -95 -202 -187 -19 -65 -18 -190 3 -255 34 -105 151 -189 263 -189 l37 0
5 -73 c8 -126 77 -243 177 -302 28 -16 51 -37 51 -45 0 -33 -59 -244 -72 -255
-7 -7 -110 -73 -229 -148 l-216 -137 -232 0 -232 0 -24 -25 c-24 -24 -25 -28
-25 -182 l0 -158 -146 -146 c-164 -164 -159 -150 -77 -223 l44 -40 90 90 89
89 0 -463 0 -462 -160 0 -160 0 0 -80 0 -80 80 0 80 0 0 -201 0 -201 -123 4
c-117 3 -126 5 -172 33 -36 22 -57 45 -77 84 l-28 53 0 297 c0 326 6 375 60
481 16 32 57 88 90 123 33 36 60 69 60 74 0 12 -93 103 -106 103 -15 0 -102
-94 -143 -153 -52 -76 -90 -168 -107 -255 -12 -64 -14 -145 -12 -394 3 -304 4
-315 27 -373 33 -82 124 -173 206 -206 l60 -24 1915 -3 c1424 -2 1929 0 1970
8 118 25 227 117 272 228 22 55 23 70 26 371 3 258 0 329 -13 395 -17 88 -55
178 -106 253 -36 54 -368 393 -384 393 -13 0 -105 -92 -105 -105 0 -5 80 -90
179 -189 267 -271 271 -280 271 -726 0 -325 -3 -341 -66 -404 -53 -52 -97 -66
-221 -66 l-113 0 0 200 0 200 80 0 80 0 0 80 0 80 -160 0 -160 0 0 735 0 736
-25 24 -24 25 -232 0 -232 0 -216 137 c-119 75 -222 141 -229 148 -13 12 -71
221 -72 257 0 9 19 27 43 41 104 61 175 176 184 301 l6 73 57 6 c100 9 181 62
228 152 25 46 27 60 27 165 0 106 -2 119 -27 166 -15 29 -46 68 -70 88 -37 32
-117 66 -155 66 -16 0 -16 -4 2 45 19 55 20 364 1 456 -24 111 -71 194 -161
285 -90 91 -168 135 -283 159 -90 20 -599 20 -688 0z m671 -160 c118 -31 217
-112 270 -219 25 -51 54 -171 43 -181 -3 -3 -65 28 -139 69 -224 125 -388 165
-592 144 -126 -12 -246 -55 -406 -144 -74 -41 -136 -72 -139 -69 -11 10 18
130 43 181 52 105 151 188 265 218 81 22 572 22 655 1z m-215 -350 c89 -10
165 -41 352 -143 l178 -97 0 -45 c0 -58 -29 -107 -77 -127 -51 -21 -74 -12
-220 84 -166 110 -210 127 -343 127 -133 0 -177 -17 -343 -127 -146 -96 -169
-105 -220 -84 -48 20 -77 69 -77 127 l0 45 178 97 c189 103 271 135 379 147
67 8 85 8 193 -4z m-22 -370 c28 -9 106 -52 174 -97 146 -96 173 -109 244
-111 l54 -2 0 -296 0 -295 -26 -52 c-33 -67 -60 -85 -304 -207 -135 -68 -206
-98 -230 -98 -54 0 -468 211 -507 258 -49 59 -53 88 -53 401 l0 289 54 2 c71
2 98 15 244 111 167 111 237 130 350 97z m-808 -386 l0 -162 -46 6 c-34 3 -55
13 -78 36 -30 30 -31 34 -31 120 0 81 2 92 25 116 30 33 54 44 98 44 l32 1 0
-161z m1564 122 c30 -30 31 -34 31 -121 0 -87 -1 -91 -31 -121 -23 -23 -44
-33 -78 -36 l-46 -6 0 163 0 163 46 -6 c34 -3 55 -13 78 -36z m-845 -1054 c65
0 78 4 204 66 l135 65 27 -106 26 -106 -133 -133 -133 -133 -125 0 -125 0
-133 133 -133 133 26 106 27 106 134 -65 c125 -62 137 -66 203 -66z m-424
-277 l69 -70 -174 0 -175 0 105 69 c58 38 105 70 105 70 0 1 32 -30 70 -69z
m1124 -66 c2 -2 -74 -4 -170 -4 l-173 0 68 69 69 69 101 -65 c55 -36 103 -67
105 -69z m-1099 -499 l0 -336 25 -24 24 -25 351 0 351 0 24 25 25 24 0 336 0
335 480 0 480 0 0 -679 0 -678 -103 -5 c-115 -6 -211 -34 -305 -90 -72 -42
-178 -148 -220 -220 -37 -62 -82 -186 -82 -224 l0 -24 -125 0 -125 0 0 215 c0
216 0 216 -25 240 l-24 25 -351 0 -351 0 -24 -25 c-25 -24 -25 -24 -25 -240
l0 -215 -125 0 -125 0 0 24 c0 38 -45 162 -82 224 -42 72 -148 178 -220 220
-94 56 -190 84 -305 90 l-103 5 0 678 0 679 480 0 480 0 0 -335z m640 55 l0
-280 -240 0 -240 0 0 280 0 280 240 0 240 0 0 -280z m-1405 -1255 c87 -23 168
-70 230 -136 55 -58 108 -153 121 -216 l7 -33 -357 0 -356 0 0 200 0 200 148
0 c100 0 167 -5 207 -15z m2685 -185 l0 -200 -356 0 -356 0 6 33 c22 110 129
249 235 306 92 49 149 60 319 60 l152 1 0 -200z m-1280 -40 l0 -160 -240 0
-240 0 0 160 0 160 240 0 240 0 0 -160z"/>
<path d="M2160 3760 l0 -80 80 0 80 0 0 80 0 80 -80 0 -80 0 0 -80z"/>
<path d="M2800 3760 l0 -80 80 0 80 0 0 80 0 80 -80 0 -80 0 0 -80z"/>
<path d="M2320 3303 c1 -38 40 -103 79 -131 141 -102 368 -36 397 116 l7 32
-78 0 c-62 0 -82 -4 -102 -20 -15 -12 -41 -20 -63 -20 -22 0 -48 8 -63 20 -20
16 -40 20 -101 20 -66 0 -76 -2 -76 -17z"/>
<path d="M1360 2000 l0 -80 80 0 80 0 0 80 0 80 -80 0 -80 0 0 -80z"/>
<path d="M1680 2000 l0 -80 160 0 160 0 0 80 0 80 -160 0 -160 0 0 -80z"/>
<path d="M3306 2064 c-34 -11 -64 -31 -102 -68 -71 -71 -84 -118 -84 -293 0
-130 1 -135 25 -159 l26 -26 192 4 c179 3 195 5 237 27 62 32 97 67 128 126
25 46 27 61 30 202 4 152 4 152 -22 178 -25 25 -25 25 -203 24 -128 0 -192 -5
-227 -15z m293 -229 c-4 -80 -6 -86 -37 -117 l-32 -33 -126 -3 -126 -4 3 85
c4 75 7 89 29 112 36 40 53 44 179 44 l113 1 -3 -85z"/>
<path d="M1360 1680 l0 -80 320 0 320 0 0 80 0 80 -320 0 -320 0 0 -80z"/>
</g>
</svg>
