<?xml version="1.0" standalone="no"?>
<!DOCTYPE svg PUBLIC "-//W3C//DTD SVG 20010904//EN"
 "http://www.w3.org/TR/2001/REC-SVG-20010904/DTD/svg10.dtd">
<svg version="1.0" xmlns="http://www.w3.org/2000/svg"
 width="512.000000pt" height="512.000000pt" viewBox="0 0 512.000000 512.000000"
 preserveAspectRatio="xMidYMid meet">

<g transform="translate(0.000000,512.000000) scale(0.100000,-0.100000)"
fill="#000000" stroke="none">
<path d="M2397 4944 c-288 -52 -551 -270 -656 -544 -164 -423 16 -947 482
-1413 144 -143 300 -267 337 -267 38 0 197 126 336 265 337 340 522 694 540
1040 32 576 -472 1022 -1039 919z m378 -178 c113 -36 198 -89 290 -181 91 -91
144 -175 182 -290 24 -71 27 -95 26 -220 0 -119 -4 -155 -26 -238 -75 -282
-298 -604 -594 -859 l-93 -80 -92 80 c-303 262 -519 574 -595 858 -22 84 -26
120 -26 239 -1 124 2 149 25 217 40 119 92 204 182 294 110 110 236 177 381
204 88 16 250 4 340 -24z"/>
<path d="M2441 4544 c-253 -68 -410 -331 -346 -579 62 -237 291 -393 529 -358
213 30 379 195 409 407 48 333 -269 617 -592 530z m254 -175 c237 -112 246
-441 15 -568 -60 -33 -71 -36 -150 -36 -72 1 -93 5 -136 27 -75 39 -107 70
-143 137 -94 178 -13 385 179 455 63 23 170 16 235 -15z"/>
<path d="M1030 3294 c-450 -139 -599 -189 -612 -205 -17 -20 -18 -89 -18
-1131 l0 -1109 23 -22 c16 -16 298 -107 1080 -346 l1057 -325 1057 325 c782
239 1064 330 1080 346 l23 22 0 1109 c0 1042 -1 1111 -17 1131 -14 16 -163 66
-618 206 -330 102 -605 185 -612 185 -16 0 -58 -141 -45 -149 6 -3 216 -69
466 -146 251 -76 456 -142 456 -145 0 -7 -1769 -551 -1790 -551 -22 1 -1790
545 -1790 551 0 3 205 69 456 145 250 77 460 143 466 146 6 4 2 32 -12 78 -15
53 -25 71 -38 70 -9 0 -285 -84 -612 -185z m490 -658 l955 -294 3 -997 2 -996
-22 7 c-13 4 -444 136 -958 294 l-935 288 -3 996 c-1 548 -1 996 0 996 2 0
433 -132 958 -294z m3038 -702 l-3 -996 -955 -294 c-525 -162 -956 -294 -958
-294 -1 0 -1 448 0 996 l3 996 950 293 c523 161 953 294 958 294 4 1 6 -447 5
-995z"/>
<path d="M1103 2532 c-13 -2 -32 -15 -43 -29 -19 -24 -20 -40 -20 -249 0 -217
1 -224 23 -248 18 -20 100 -49 432 -150 226 -69 421 -126 433 -126 13 0 34 11
47 25 l25 24 0 229 c0 204 -2 232 -17 251 -14 16 -113 51 -393 136 -467 144
-460 142 -487 137z m625 -348 l112 -35 0 -115 c0 -89 -3 -115 -12 -112 -7 3
-151 47 -320 98 l-308 94 0 117 0 116 208 -64 c114 -35 258 -79 320 -99z"/>
<path d="M1520 879 c-12 -39 -20 -72 -18 -74 5 -4 139 -45 149 -45 7 0 49 123
49 143 0 7 -119 47 -141 47 -12 0 -23 -19 -39 -71z"/>
<path d="M1841 784 c-12 -42 -21 -77 -19 -79 4 -3 145 -45 152 -45 10 0 48
142 39 150 -4 4 -34 15 -65 24 -32 9 -63 19 -71 22 -10 3 -20 -17 -36 -72z"/>
<path d="M2160 684 c-12 -41 -20 -76 -19 -78 3 -2 88 -27 140 -42 13 -4 22 11
39 67 12 39 18 75 13 79 -6 6 -136 50 -148 50 -1 0 -12 -34 -25 -76z"/>
<path d="M3574 2408 c-308 -94 -424 -134 -436 -149 -16 -19 -18 -47 -18 -251
l0 -229 25 -24 c13 -14 35 -25 47 -25 13 0 208 56 433 125 335 103 414 130
433 151 21 24 22 31 22 248 0 207 -1 225 -20 248 -11 14 -30 28 -44 30 -14 3
-198 -49 -442 -124z m346 -176 l0 -118 -307 -94 c-170 -51 -314 -95 -320 -98
-10 -3 -13 23 -13 112 l0 115 113 35 c147 46 521 164 525 165 1 1 2 -52 2
-117z"/>
<path d="M4300 1179 c-36 -12 -68 -24 -73 -28 -6 -6 27 -137 38 -149 4 -4 139
39 148 48 9 8 -31 150 -41 149 -4 0 -36 -9 -72 -20z"/>
<path d="M3970 1078 c-36 -12 -67 -22 -69 -24 -9 -7 43 -154 54 -151 6 3 39
13 73 22 35 10 65 22 68 26 8 14 -37 149 -49 148 -7 -1 -41 -10 -77 -21z"/>
<path d="M3650 978 c-36 -11 -66 -21 -68 -23 -2 -2 6 -35 18 -74 16 -53 25
-71 38 -71 23 0 142 40 142 47 0 26 -44 143 -53 142 -7 0 -41 -9 -77 -21z"/>
</g>
</svg>
