<?xml version="1.0" standalone="no"?>
<!DOCTYPE svg PUBLIC "-//W3C//DTD SVG 20010904//EN"
 "http://www.w3.org/TR/2001/REC-SVG-20010904/DTD/svg10.dtd">
<svg version="1.0" xmlns="http://www.w3.org/2000/svg"
 width="512.000000pt" height="512.000000pt" viewBox="0 0 512.000000 512.000000"
 preserveAspectRatio="xMidYMid meet">

<g transform="translate(0.000000,512.000000) scale(0.100000,-0.100000)"
fill="#000000" stroke="none">
<path d="M930 4841 l0 -179 -27 -7 c-15 -3 -61 -22 -102 -41 l-75 -35 -126
126 -125 125 -140 -140 -140 -140 127 -127 127 -128 -22 -40 c-11 -22 -31 -67
-43 -100 l-22 -60 -181 -3 -181 -2 0 -200 0 -200 181 -2 181 -3 22 -60 c12
-33 32 -78 43 -100 l22 -40 -127 -128 -127 -127 140 -140 140 -140 125 125
126 126 74 -35 c41 -18 90 -37 108 -41 l32 -7 0 -179 0 -179 200 0 200 0 0
178 0 179 43 13 c23 7 69 26 101 42 l59 30 126 -126 126 -126 140 140 140 140
-124 124 -125 125 31 68 c17 37 36 85 43 106 l12 37 179 0 179 0 0 200 0 200
-179 0 -179 0 -12 38 c-7 20 -26 68 -43 105 l-31 68 125 125 124 124 -140 140
-140 140 -126 -126 -125 -125 -74 35 c-41 20 -89 39 -107 42 l-33 6 0 179 0
179 -200 0 -200 0 0 -179z m332 -570 c62 -19 155 -89 198 -149 127 -176 86
-428 -88 -552 -64 -46 -162 -80 -231 -80 -154 0 -303 96 -369 238 -24 50 -27
69 -27 162 0 93 3 112 27 162 71 152 218 243 378 234 41 -2 92 -9 112 -15z"/>
<path d="M2626 4235 c12 -53 26 -128 29 -168 3 -39 8 -87 11 -104 l5 -33 148
0 c135 0 152 -2 192 -23 24 -13 58 -43 74 -66 l30 -43 3 -1449 2 -1449 -602 1
-603 0 -34 72 c-47 100 -158 210 -261 261 -177 86 -363 86 -540 0 -104 -51
-214 -161 -261 -262 l-34 -72 -125 2 c-111 3 -129 6 -163 27 -21 13 -50 42
-65 64 l-27 41 -3 757 -2 757 -75 47 c-93 58 -170 119 -257 204 l-68 65 0
-915 c0 -879 1 -919 20 -993 29 -113 73 -190 160 -276 131 -132 258 -180 479
-181 l126 0 34 -72 c47 -100 158 -210 261 -261 240 -117 504 -74 691 113 55
56 85 95 110 148 l34 72 620 0 620 0 34 -72 c47 -100 158 -210 261 -261 240
-117 504 -74 691 113 55 56 85 95 110 148 l34 72 418 0 417 1 0 718 c-1 774
-2 799 -54 937 -15 39 -44 97 -65 130 -74 118 -624 835 -680 887 -71 67 -158
113 -257 138 -66 17 -111 20 -311 20 l-233 0 0 233 c0 263 -11 335 -72 450
-48 92 -165 205 -258 251 -110 53 -184 66 -401 66 l-186 0 23 -95z m1396
-1333 c25 -16 120 -133 295 -365 142 -188 260 -345 261 -349 2 -4 -235 -8
-527 -8 l-531 0 0 376 0 375 233 -3 c222 -3 234 -4 269 -26z m698 -1562 l0
-440 -217 1 -218 0 -34 72 c-47 100 -158 210 -261 261 -129 63 -259 80 -395
51 -38 -8 -71 -15 -72 -15 -2 0 -3 115 -3 255 l0 255 600 0 600 0 0 -440z
m-3260 -474 c59 -39 85 -89 85 -166 0 -78 -26 -127 -88 -168 -56 -37 -153 -39
-210 -3 -76 47 -111 140 -88 229 14 51 75 117 123 131 53 16 135 6 178 -23z
m2370 0 c59 -39 85 -89 85 -166 0 -78 -26 -127 -88 -168 -56 -37 -153 -39
-210 -3 -76 47 -111 140 -88 229 14 51 75 117 123 131 53 16 135 6 178 -23z"/>
</g>
</svg>
